CSLSans-LightItalic.ufo
<glyph name="comma" format="2">
  <advance width="300"/>
  <unicode hex="002C"/>
  <outline>
    <contour>
      <point x="-17" y="-138" type="line"/>
      <point x="60" y="-69"/>
      <point x="82" y="-6" type="qcurve"/>
      <point x="52" y="-1"/>
      <point x="52" y="24" type="qcurve" smooth="yes"/>
      <point x="52" y="40"/>
      <point x="56" y="50" type="qcurve"/>
      <point x="59" y="66"/>
      <point x="80" y="92"/>
      <point x="106" y="92" type="qcurve" smooth="yes"/>
      <point x="147" y="92"/>
      <point x="147" y="60" type="qcurve" smooth="yes"/>
      <point x="147" y="43"/>
      <point x="144" y="34" type="qcurve"/>
      <point x="134" y="-7"/>
      <point x="78" y="-103"/>
      <point x="31" y="-138" type="qcurve"/>
    </contour>
  </outline>
</glyph>
<glyph name="one" format="2">
  <advance width="600"/>
  <unicode hex="0031"/>
  <outline>
    <contour>
      <point x="324" y="0" type="line"/>
      <point x="266" y="0" type="line"/>
      <point x="393" y="638" type="line"/>
      <point x="225" y="549" type="line"/>
      <point x="238" y="612" type="line"/>
      <point x="397" y="698" type="line"/>
      <point x="463" y="698" type="line"/>
    </contour>
  </outline>
</glyph>
<glyph name="four" format="2">
  <advance width="600"/>
  <unicode hex="0034"/>
  <outline>
    <contour>
      <point x="462" y="635" type="line"/>
      <point x="459" y="635" type="line"/>
      <point x="94" y="195" type="line"/>
      <point x="374" y="195" type="line"/>
    </contour>
    <contour>
      <point x="335" y="0" type="line"/>
      <point x="364" y="146" type="line"/>
      <point x="29" y="146" type="line"/>
      <point x="40" y="202" type="line"/>
      <point x="449" y="698" type="line"/>
      <point x="531" y="698" type="line"/>
      <point x="431" y="195" type="line"/>
      <point x="534" y="195" type="line"/>
      <point x="525" y="146" type="line"/>
      <point x="421" y="146" type="line"/>
      <point x="391" y="0" type="line"/>
    </contour>
  </outline>
</glyph>
<glyph name="P" format="2">
  <advance width="586"/>
  <unicode hex="0050"/>
  <outline>
    <contour>
      <point x="383" y="359" type="line" smooth="yes"/>
      <point x="521" y="359"/>
      <point x="537" y="522" type="qcurve"/>
      <point x="539" y="537"/>
      <point x="539" y="547" type="qcurve" smooth="yes"/>
      <point x="539" y="590"/>
      <point x="489" y="646"/>
      <point x="430" y="646" type="qcurve" smooth="yes"/>
      <point x="232" y="646" type="line"/>
      <point x="176" y="359" type="line"/>
    </contour>
    <contour>
      <point x="45" y="0" type="line"/>
      <point x="185" y="698" type="line"/>
      <point x="435" y="698" type="line" smooth="yes"/>
      <point x="519" y="698"/>
      <point x="599" y="607"/>
      <point x="599" y="538" type="qcurve" smooth="yes"/>
      <point x="599" y="436"/>
      <point x="478" y="307"/>
      <point x="374" y="307" type="qcurve" smooth="yes"/>
      <point x="165" y="307" type="line"/>
      <point x="103" y="0" type="line"/>
    </contour>
  </outline>
</glyph>
<glyph name="W" format="2">
  <advance width="863"/>
  <unicode hex="0057"/>
  <outline>
    <contour>
      <point x="545" y="0" type="line"/>
      <point x="507" y="628" type="line"/>
      <point x="503" y="628" type="line"/>
      <point x="213" y="0" type="line"/>
      <point x="143" y="0" type="line"/>
      <point x="110" y="698" type="line"/>
      <point x="168" y="698" type="line"/>
      <point x="193" y="76" type="line"/>
      <point x="196" y="76" type="line"/>
      <point x="482" y="698" type="line"/>
      <point x="553" y="698" type="line"/>
      <point x="591" y="76" type="line"/>
      <point x="594" y="76" type="line"/>
      <point x="872" y="698" type="line"/>
      <point x="933" y="698" type="line"/>
      <point x="613" y="0" type="line"/>
    </contour>
  </outline>
</glyph>
<glyph name="e" format="2">
  <advance width="508"/>
  <unicode hex="0065"/>
  <outline>
    <contour>
      <point x="119" y="270" type="line"/>
      <point x="302" y="276"/>
      <point x="364" y="308" type="qcurve" smooth="yes"/>
      <point x="396" y="324"/>
      <point x="420" y="367"/>
      <point x="420" y="393" type="qcurve" smooth="yes"/>
      <point x="420" y="436"/>
      <point x="359" y="476"/>
      <point x="308" y="476" type="qcurve" smooth="yes"/>
      <point x="238" y="476"/>
      <point x="142" y="376"/>
      <point x="124" y="294" type="qcurve" smooth="yes"/>
    </contour>
    <contour>
      <point x="240" y="-12" type="qcurve" smooth="yes"/>
      <point x="150" y="-12"/>
      <point x="53" y="93"/>
      <point x="53" y="197" type="qcurve" smooth="yes"/>
      <point x="53" y="329"/>
      <point x="125" y="427" type="qcurve" smooth="yes"/>
      <point x="159" y="472"/>
      <point x="255" y="524"/>
      <point x="314" y="524" type="qcurve" smooth="yes"/>
      <point x="382" y="524"/>
      <point x="477" y="457"/>
      <point x="477" y="392" type="qcurve" smooth="yes"/>
      <point x="477" y="316"/>
      <point x="399" y="275" type="qcurve"/>
      <point x="317" y="230"/>
      <point x="112" y="226" type="qcurve"/>
      <point x="109" y="212"/>
      <point x="109" y="183" type="qcurve" smooth="yes"/>
      <point x="110" y="37"/>
      <point x="243" y="37" type="qcurve" smooth="yes"/>
      <point x="297" y="37"/>
      <point x="383" y="90"/>
      <point x="413" y="136" type="qcurve"/>
      <point x="451" y="106" type="line"/>
      <point x="367" y="-12"/>
    </contour>
  </outline>
</glyph>
<glyph name="q" format="2">
  <advance width="567"/>
  <unicode hex="0071"/>
  <outline>
    <contour>
      <point x="227" y="38" type="qcurve" smooth="yes"/>
      <point x="292" y="38"/>
      <point x="335" y="85" type="qcurve"/>
      <point x="392" y="133"/>
      <point x="411" y="222" type="qcurve" smooth="yes"/>
      <point x="435" y="341" type="line" smooth="yes"/>
      <point x="438" y="355"/>
      <point x="438" y="368" type="qcurve" smooth="yes"/>
      <point x="438" y="403"/>
      <point x="416" y="432" type="qcurve" smooth="yes"/>
      <point x="383" y="474"/>
      <point x="310" y="474" type="qcurve" smooth="yes"/>
      <point x="238" y="474"/>
      <point x="145" y="379"/>
      <point x="128" y="294" type="qcurve" smooth="yes"/>
      <point x="116" y="234" type="line" smooth="yes"/>
      <point x="111" y="210"/>
      <point x="111" y="175" type="qcurve" smooth="yes"/>
      <point x="111" y="117"/>
      <point x="167" y="38"/>
    </contour>
    <contour>
      <point x="327" y="-200" type="line"/>
      <point x="389" y="112" type="line"/>
      <point x="386" y="112" type="line"/>
      <point x="355" y="50"/>
      <point x="274" y="-12"/>
      <point x="214" y="-12" type="qcurve" smooth="yes"/>
      <point x="141" y="-12"/>
      <point x="55" y="93"/>
      <point x="55" y="181" type="qcurve" smooth="yes"/>
      <point x="55" y="243"/>
      <point x="87" y="366"/>
      <point x="149" y="464"/>
      <point x="243" y="524"/>
      <point x="305" y="524" type="qcurve" smooth="yes"/>
      <point x="359" y="524"/>
      <point x="436" y="473"/>
      <point x="449" y="425" type="qcurve"/>
      <point x="452" y="425" type="line"/>
      <point x="469" y="512" type="line"/>
      <point x="524" y="512" type="line"/>
      <point x="382" y="-200" type="line"/>
    </contour>
  </outline>
</glyph>
<glyph name="cent" format="2">
  <advance width="498"/>
  <unicode hex="00A2"/>
  <outline>
    <contour>
      <point x="282" y="473" type="line"/>
      <point x="157" y="456"/>
      <point x="127" y="306" type="qcurve" smooth="yes"/>
      <point x="113" y="236" type="line" smooth="yes"/>
      <point x="108" y="212"/>
      <point x="108" y="183" type="qcurve" smooth="yes"/>
      <point x="108" y="131"/>
      <point x="150" y="54"/>
      <point x="196" y="42" type="qcurve"/>
    </contour>
    <contour>
      <point x="164" y="-114" type="line"/>
      <point x="186" y="-7" type="line"/>
      <point x="122" y="8"/>
      <point x="54" y="114"/>
      <point x="54" y="195" type="qcurve" smooth="yes"/>
      <point x="54" y="327"/>
      <point x="177" y="514"/>
      <point x="292" y="523" type="qcurve"/>
      <point x="312" y="626" type="line"/>
      <point x="362" y="626" type="line"/>
      <point x="340" y="520" type="line"/>
      <point x="439" y="498"/>
      <point x="466" y="406" type="qcurve"/>
      <point x="417" y="385" type="line"/>
      <point x="398" y="457"/>
      <point x="329" y="472" type="qcurve"/>
      <point x="243" y="36" type="line"/>
      <point x="328" y="38"/>
      <point x="387" y="144" type="qcurve"/>
      <point x="431" y="123" type="line"/>
      <point x="360" y="-9"/>
      <point x="233" y="-12" type="qcurve"/>
      <point x="213" y="-114" type="line"/>
    </contour>
  </outline>
</glyph>
<glyph name="sterling" format="2">
  <advance width="578"/>
  <unicode hex="00A3"/>
  <outline>
    <contour>
      <point x="29" y="0" type="line"/>
      <point x="43" y="72" type="line"/>
      <point x="108" y="102"/>
      <point x="163" y="212"/>
      <point x="163" y="270" type="qcurve" smooth="yes"/>
      <point x="163" y="284" type="line"/>
      <point x="162" y="290"/>
      <point x="162" y="297" type="qcurve"/>
      <point x="71" y="297" type="line"/>
      <point x="81" y="346" type="line"/>
      <point x="158" y="346" type="line"/>
      <point x="149" y="410"/>
      <point x="149" y="468" type="qcurve" smooth="yes"/>
      <point x="149" y="576"/>
      <point x="286" y="710"/>
      <point x="392" y="710" type="qcurve" smooth="yes"/>
      <point x="530" y="710"/>
      <point x="584" y="593" type="qcurve"/>
      <point x="535" y="562" type="line"/>
      <point x="498" y="658"/>
      <point x="388" y="658" type="qcurve" smooth="yes"/>
      <point x="309" y="658"/>
      <point x="208" y="559"/>
      <point x="208" y="463" type="qcurve" smooth="yes"/>
      <point x="208" y="405"/>
      <point x="216" y="346" type="qcurve"/>
      <point x="427" y="346" type="line"/>
      <point x="417" y="297" type="line"/>
      <point x="219" y="297" type="line"/>
      <point x="220" y="291"/>
      <point x="220" y="269" type="qcurve"/>
      <point x="215" y="194"/>
      <point x="147" y="83"/>
      <point x="96" y="56" type="qcurve"/>
      <point x="95" y="52" type="line"/>
      <point x="467" y="52" type="line"/>
      <point x="456" y="0" type="line"/>
    </contour>
  </outline>
</glyph>
<glyph name="guillemotleft" format="2">
  <advance width="485"/>
  <unicode hex="00AB"/>
  <outline>
    <contour>
      <point x="227" y="263" type="line"/>
      <point x="238" y="316" type="line"/>
      <point x="461" y="486" type="line"/>
      <point x="472" y="443" type="line"/>
      <point x="287" y="284" type="line"/>
      <point x="408" y="125" type="line"/>
      <point x="384" y="89" type="line"/>
    </contour>
    <contour>
      <point x="36" y="263" type="line"/>
      <point x="47" y="316" type="line"/>
      <point x="270" y="486" type="line"/>
      <point x="281" y="443" type="line"/>
      <point x="96" y="284" type="line"/>
      <point x="217" y="125" type="line"/>
      <point x="193" y="89" type="line"/>
    </contour>
  </outline>
</glyph>
<glyph name="degree" format="2">
  <advance width="459"/>
  <unicode hex="00B0"/>
  <outline>
    <contour>
      <point x="272" y="416" type="qcurve" smooth="yes"/>
      <point x="328" y="416"/>
      <point x="399" y="498"/>
      <point x="399" y="558" type="qcurve" smooth="yes"/>
      <point x="399" y="603"/>
      <point x="347" y="664"/>
      <point x="299" y="664" type="qcurve" smooth="yes"/>
      <point x="244" y="664"/>
      <point x="173" y="581"/>
      <point x="173" y="521" type="qcurve" smooth="yes"/>
      <point x="173" y="476"/>
      <point x="225" y="416"/>
    </contour>
    <contour>
      <point x="266" y="369" type="qcurve" smooth="yes"/>
      <point x="205" y="369"/>
      <point x="123" y="454"/>
      <point x="123" y="520" type="qcurve" smooth="yes"/>
      <point x="123" y="603"/>
      <point x="227" y="710"/>
      <point x="305" y="710" type="qcurve" smooth="yes"/>
      <point x="367" y="710"/>
      <point x="448" y="626"/>
      <point x="448" y="560" type="qcurve" smooth="yes"/>
      <point x="448" y="478"/>
      <point x="344" y="369"/>
    </contour>
  </outline>
</glyph>
<glyph name="mu" format="2">
  <advance width="565"/>
  <unicode hex="00B5"/>
  <outline>
    <contour>
      <point x="4" y="-200" type="line"/>
      <point x="146" y="512" type="line"/>
      <point x="201" y="512" type="line"/>
      <point x="137" y="193" type="line" smooth="yes"/>
      <point x="131" y="162"/>
      <point x="131" y="133" type="qcurve" smooth="yes"/>
      <point x="132" y="38"/>
      <point x="223" y="38" type="qcurve" smooth="yes"/>
      <point x="288" y="38"/>
      <point x="332" y="87" type="qcurve" smooth="yes"/>
      <point x="382" y="144"/>
      <point x="397" y="215" type="qcurve" smooth="yes"/>
      <point x="457" y="512" type="line"/>
      <point x="512" y="512" type="line"/>
      <point x="419" y="49" type="line"/>
      <point x="497" y="49" type="line"/>
      <point x="487" y="0" type="line"/>
      <point x="416" y="0" type="line"/>
      <point x="366" y="1"/>
      <point x="366" y="47" type="qcurve" smooth="yes"/>
      <point x="366" y="61"/>
      <point x="371" y="83" type="qcurve"/>
      <point x="375" y="105" type="line"/>
      <point x="372" y="105" type="line"/>
      <point x="344" y="47"/>
      <point x="270" y="-12"/>
      <point x="211" y="-12" type="qcurve" smooth="yes"/>
      <point x="126" y="-12"/>
      <point x="108" y="67" type="qcurve"/>
      <point x="105" y="67" type="line"/>
      <point x="91" y="-45" type="line"/>
      <point x="60" y="-200" type="line"/>
    </contour>
  </outline>
</glyph>
<glyph name="Aacute" format="2">
  <advance width="612"/>
  <unicode hex="00C1"/>
  <outline>
    <contour>
      <point x="379" y="641" type="line"/>
      <point x="375" y="641" type="line"/>
      <point x="181" y="268" type="line"/>
      <point x="437" y="268" type="line"/>
    </contour>
    <contour>
      <point x="477" y="0" type="line"/>
      <point x="443" y="217" type="line"/>
      <point x="154" y="217" type="line"/>
      <point x="41" y="0" type="line"/>
      <point x="-21" y="0" type="line"/>
      <point x="349" y="698" type="line"/>
      <point x="426" y="698" type="line"/>
      <point x="536" y="0" type="line"/>
    </contour>
    <contour>
      <point x="367" y="780" type="line"/>
      <point x="486" y="943" type="line"/>
      <point x="534" y="916" type="line"/>
      <point x="401" y="760" type="line"/>
    </contour>
  </outline>
</glyph>
<glyph name="Ccedilla" format="2">
  <advance width="599"/>
  <unicode hex="00C7"/>
  <outline>
    <contour>
      <point x="267" y="-205" type="qcurve" smooth="yes"/>
      <point x="233" y="-205"/>
      <point x="187" y="-185"/>
      <point x="176" y="-170" type="qcurve"/>
      <point x="206" y="-140" type="line"/>
      <point x="223" y="-166"/>
      <point x="266" y="-166" type="qcurve"/>
      <point x="323" y="-161"/>
      <point x="323" y="-121" type="qcurve" smooth="yes"/>
      <point x="323" y="-86"/>
      <point x="269" y="-82" type="qcurve" smooth="yes"/>
      <point x="238" y="-79" type="line"/>
      <point x="263" y="-11" type="line"/>
      <point x="171" y="-1"/>
      <point x="117" y="65" type="qcurve"/>
      <point x="60" y="130"/>
      <point x="60" y="248" type="qcurve" smooth="yes"/>
      <point x="60" y="332"/>
      <point x="103" y="497"/>
      <point x="188" y="630"/>
      <point x="313" y="710"/>
      <point x="394" y="710" type="qcurve" smooth="yes"/>
      <point x="561" y="710"/>
      <point x="605" y="558" type="qcurve"/>
      <point x="552" y="536" type="line"/>
      <point x="536" y="594"/>
      <point x="459" y="658"/>
      <point x="388" y="658" type="qcurve" smooth="yes"/>
      <point x="298" y="658"/>
      <point x="168" y="524"/>
      <point x="144" y="410" type="qcurve" smooth="yes"/>
      <point x="135" y="365"/>
      <point x="118" y="271"/>
      <point x="118" y="236" type="qcurve" smooth="yes"/>
      <point x="118" y="147"/>
      <point x="209" y="40"/>
      <point x="293" y="40" type="qcurve" smooth="yes"/>
      <point x="365" y="40"/>
      <point x="457" y="109"/>
      <point x="492" y="175" type="qcurve"/>
      <point x="541" y="151" type="line"/>
      <point x="457" y="-11"/>
      <point x="300" y="-12" type="qcurve"/>
      <point x="279" y="-66" type="line"/>
      <point x="281" y="-68" type="line"/>
      <point x="287" y="-67" type="line"/>
      <point x="297" y="-65"/>
      <point x="312" y="-65" type="qcurve" smooth="yes"/>
      <point x="370" y="-65"/>
      <point x="370" y="-120" type="qcurve" smooth="yes"/>
      <point x="370" y="-157"/>
      <point x="314" y="-205"/>
    </contour>
  </outline>
</glyph>
<glyph name="Egrave" format="2">
  <advance width="560"/>
  <unicode hex="00C8"/>
  <outline>
    <contour>
      <point x="45" y="0" type="line"/>
      <point x="185" y="698" type="line"/>
      <point x="583" y="698" type="line"/>
      <point x="572" y="646" type="line"/>
      <point x="233" y="646" type="line"/>
      <point x="179" y="380" type="line"/>
      <point x="494" y="380" type="line"/>
      <point x="484" y="329" type="line"/>
      <point x="169" y="329" type="line"/>
      <point x="114" y="52" type="line"/>
      <point x="463" y="52" type="line"/>
      <point x="453" y="0" type="line"/>
    </contour>
    <contour>
      <point x="309" y="918" type="line"/>
      <point x="358" y="942" type="line"/>
      <point x="427" y="776" type="line"/>
      <point x="393" y="760" type="line"/>
    </contour>
  </outline>
</glyph>
<glyph name="Iacute" format="2">
  <advance width="251"/>
  <unicode hex="00CD"/>
  <outline>
    <contour>
      <point x="45" y="0" type="line"/>
      <point x="185" y="698" type="line"/>
      <point x="243" y="698" type="line"/>
      <point x="103" y="0" type="line"/>
    </contour>
    <contour>
      <point x="193" y="780" type="line"/>
      <point x="312" y="943" type="line"/>
      <point x="360" y="916" type="line"/>
      <point x="227" y="760" type="line"/>
    </contour>
  </outline>
</glyph>
<glyph name="Eth" format="2">
  <advance width="653"/>
  <unicode hex="00D0"/>
  <outline>
    <contour>
      <point x="282" y="52" type="line" smooth="yes"/>
      <point x="383" y="52"/>
      <point x="514" y="185"/>
      <point x="536" y="294" type="qcurve" smooth="yes"/>
      <point x="554" y="380" type="line"/>
      <point x="561" y="426"/>
      <point x="561" y="460" type="qcurve" smooth="yes"/>
      <point x="561" y="549"/>
      <point x="468" y="646"/>
      <point x="381" y="646" type="qcurve" smooth="yes"/>
      <point x="235" y="646" type="line"/>
      <point x="185" y="391" type="line"/>
      <point x="331" y="391" type="line"/>
      <point x="321" y="346" type="line"/>
      <point x="175" y="346" type="line"/>
      <point x="117" y="52" type="line"/>
    </contour>
    <contour>
      <point x="48" y="0" type="line"/>
      <point x="117" y="346" type="line"/>
      <point x="38" y="346" type="line"/>
      <point x="47" y="391" type="line"/>
      <point x="127" y="391" type="line"/>
      <point x="187" y="698" type="line"/>
      <point x="385" y="698" type="line" smooth="yes"/>
      <point x="498" y="698"/>
      <point x="621" y="568"/>
      <point x="621" y="443" type="qcurve" smooth="yes"/>
      <point x="621" y="360"/>
      <point x="578" y="202"/>
      <point x="492" y="76"/>
      <point x="365" y="0"/>
      <point x="281" y="0" type="qcurve" smooth="yes"/>
    </contour>
  </outline>
</glyph>
<glyph name="Otilde" format="2">
  <advance width="671"/>
  <unicode hex="00D5"/>
  <outline>
    <contour>
      <point x="300" y="40" type="qcurve" smooth="yes"/>
      <point x="400" y="40"/>
      <point x="533" y="179"/>
      <point x="558" y="301" type="qcurve" smooth="yes"/>
      <point x="575" y="384" type="line"/>
      <point x="583" y="434"/>
      <point x="583" y="468" type="qcurve" smooth="yes"/>
      <point x="583" y="556"/>
      <point x="489" y="658"/>
      <point x="401" y="658" type="qcurve" smooth="yes"/>
      <point x="301" y="658"/>
      <point x="168" y="519"/>
      <point x="143" y="397" type="qcurve" smooth="yes"/>
      <point x="126" y="314" type="line"/>
      <point x="118" y="265"/>
      <point x="118" y="230" type="qcurve" smooth="yes"/>
      <point x="118" y="142"/>
      <point x="212" y="40"/>
    </contour>
    <contour>
      <point x="295" y="-12" type="qcurve" smooth="yes"/>
      <point x="193" y="-12"/>
      <point x="60" y="120"/>
      <point x="60" y="244" type="qcurve" smooth="yes"/>
      <point x="60" y="326"/>
      <point x="104" y="491"/>
      <point x="190" y="627"/>
      <point x="320" y="710"/>
      <point x="406" y="710" type="qcurve" smooth="yes"/>
      <point x="508" y="710"/>
      <point x="641" y="579"/>
      <point x="641" y="454" type="qcurve" smooth="yes"/>
      <point x="641" y="372"/>
      <point x="598" y="207"/>
      <point x="511" y="71"/>
      <point x="381" y="-12"/>
    </contour>
    <contour>
      <point x="501" y="792" type="qcurve" smooth="yes"/>
      <point x="478" y="792"/>
      <point x="444" y="808"/>
      <point x="427" y="820" type="qcurve" smooth="yes"/>
      <point x="392" y="844"/>
      <point x="363" y="844" type="qcurve" smooth="yes"/>
      <point x="329" y="844"/>
      <point x="299" y="815" type="qcurve"/>
      <point x="278" y="843" type="line"/>
      <point x="320" y="891"/>
      <point x="371" y="891" type="qcurve" smooth="yes"/>
      <point x="394" y="891"/>
      <point x="428" y="875"/>
      <point x="445" y="863" type="qcurve"/>
      <point x="481" y="839"/>
      <point x="509" y="839" type="qcurve" smooth="yes"/>
      <point x="544" y="839"/>
      <point x="573" y="868" type="qcurve"/>
      <point x="594" y="840" type="line"/>
      <point x="552" y="792"/>
    </contour>
  </outline>
</glyph>
<glyph name="iacute" format="2">
  <advance width="253"/>
  <unicode hex="00ED"/>
  <outline>
    <contour>
      <point x="105" y="0" type="line" smooth="yes"/>
      <point x="54" y="0"/>
      <point x="54" y="46" type="qcurve" smooth="yes"/>
      <point x="54" y="58"/>
      <point x="56" y="64"/>
      <point x="146" y="512" type="qcurve"/>
      <point x="201" y="512" type="line"/>
      <point x="108" y="49" type="line"/>
      <point x="186" y="49" type="line"/>
      <point x="176" y="0" type="line"/>
    </contour>
    <contour>
      <point x="157" y="605" type="line"/>
      <point x="277" y="769" type="line"/>
      <point x="325" y="742" type="line"/>
      <point x="192" y="586" type="line"/>
    </contour>
  </outline>
</glyph>
<glyph name="Abreve" format="2">
  <advance width="612"/>
  <unicode hex="0102"/>
  <outline>
    <contour>
      <point x="379" y="641" type="line"/>
      <point x="375" y="641" type="line"/>
      <point x="181" y="268" type="line"/>
      <point x="437" y="268" type="line"/>
    </contour>
    <contour>
      <point x="477" y="0" type="line"/>
      <point x="443" y="217" type="line"/>
      <point x="154" y="217" type="line"/>
      <point x="41" y="0" type="line"/>
      <point x="-21" y="0" type="line"/>
      <point x="349" y="698" type="line"/>
      <point x="426" y="698" type="line"/>
      <point x="536" y="0" type="line"/>
    </contour>
    <contour>
      <point x="404" y="774" type="qcurve" smooth="yes"/>
      <point x="346" y="774"/>
      <point x="315" y="814" type="qcurve"/>
      <point x="289" y="852"/>
      <point x="279" y="901" type="qcurve"/>
      <point x="314" y="916" type="line"/>
      <point x="326" y="888" type="line" smooth="yes"/>
      <point x="340" y="853"/>
      <point x="376" y="818"/>
      <point x="405" y="818" type="qcurve" smooth="yes"/>
      <point x="435" y="818"/>
      <point x="480" y="850"/>
      <point x="508" y="889" type="qcurve" smooth="yes"/>
      <point x="528" y="916" type="line"/>
      <point x="564" y="901" type="line"/>
      <point x="520" y="813"/>
      <point x="461" y="785" type="qcurve" smooth="yes"/>
      <point x="437" y="774"/>
    </contour>
  </outline>
</glyph>
<glyph name="cacute" format="2">
  <advance width="484"/>
  <unicode hex="0107"/>
  <outline>
    <contour>
      <point x="231" y="-12" type="qcurve" smooth="yes"/>
      <point x="146" y="-12"/>
      <point x="54" y="103"/>
      <point x="54" y="194" type="qcurve" smooth="yes"/>
      <point x="54" y="331"/>
      <point x="187" y="524"/>
      <point x="302" y="524" type="qcurve" smooth="yes"/>
      <point x="367" y="524"/>
      <point x="451" y="459"/>
      <point x="464" y="405" type="qcurve"/>
      <point x="418" y="386" type="line"/>
      <point x="393" y="475"/>
      <point x="300" y="475" type="qcurve" smooth="yes"/>
      <point x="232" y="475"/>
      <point x="142" y="385"/>
      <point x="127" y="306" type="qcurve" smooth="yes"/>
      <point x="113" y="236" type="line" smooth="yes"/>
      <point x="108" y="210"/>
      <point x="108" y="184" type="qcurve" smooth="yes"/>
      <point x="108" y="121"/>
      <point x="171" y="37"/>
      <point x="236" y="37" type="qcurve" smooth="yes"/>
      <point x="328" y="37"/>
      <point x="387" y="144" type="qcurve"/>
      <point x="431" y="123" type="line"/>
      <point x="359" y="-12"/>
    </contour>
    <contour>
      <point x="283" y="605" type="line"/>
      <point x="403" y="769" type="line"/>
      <point x="451" y="742" type="line"/>
      <point x="318" y="586" type="line"/>
    </contour>
  </outline>
</glyph>
<glyph name="itilde" format="2">
  <advance width="253"/>
  <unicode hex="0129"/>
  <outline>
    <contour>
      <point x="105" y="0" type="line" smooth="yes"/>
      <point x="54" y="0"/>
      <point x="54" y="46" type="qcurve" smooth="yes"/>
      <point x="54" y="58"/>
      <point x="56" y="64"/>
      <point x="146" y="512" type="qcurve"/>
      <point x="201" y="512" type="line"/>
      <point x="108" y="49" type="line"/>
      <point x="186" y="49" type="line"/>
      <point x="176" y="0" type="line"/>
    </contour>
    <contour>
      <point x="270" y="618" type="qcurve" smooth="yes"/>
      <point x="247" y="618"/>
      <point x="213" y="634"/>
      <point x="196" y="646" type="qcurve" smooth="yes"/>
      <point x="161" y="670"/>
      <point x="132" y="670" type="qcurve" smooth="yes"/>
      <point x="98" y="670"/>
      <point x="68" y="641" type="qcurve"/>
      <point x="47" y="669" type="line"/>
      <point x="89" y="717"/>
      <point x="140" y="717" type="qcurve" smooth="yes"/>
      <point x="163" y="717"/>
      <point x="197" y="701"/>
      <point x="214" y="689" type="qcurve"/>
      <point x="250" y="665"/>
      <point x="278" y="665" type="qcurve" smooth="yes"/>
      <point x="313" y="665"/>
      <point x="342" y="694" type="qcurve"/>
      <point x="363" y="666" type="line"/>
      <point x="321" y="618"/>
    </contour>
  </outline>
</glyph>
<glyph name="zdotaccent" format="2">
  <advance width="441"/>
  <unicode hex="017C"/>
  <outline>
    <contour>
      <point x="-3" y="0" type="line"/>
      <point x="6" y="48" type="line"/>
      <point x="371" y="463" type="line"/>
      <point x="88" y="463" type="line"/>
      <point x="97" y="512" type="line"/>
      <point x="446" y="512" type="line"/>
      <point x="437" y="464" type="line"/>
      <point x="72" y="49" type="line"/>
      <point x="369" y="49" type="line"/>
      <point x="359" y="0" type="line"/>
    </contour>
    <contour>
      <point x="296" y="626" type="qcurve" smooth="yes"/>
      <point x="262" y="626"/>
      <point x="262" y="654" type="qcurve"/>
      <point x="265" y="676" type="line"/>
      <point x="271" y="708"/>
      <point x="308" y="708" type="qcurve" smooth="yes"/>
      <point x="342" y="708"/>
      <point x="342" y="680" type="qcurve" smooth="yes"/>
      <point x="342" y="673" type="line"/>
      <point x="339" y="658" type="line"/>
      <point x="334" y="626"/>
    </contour>
  </outline>
</glyph>
<glyph name="Aringacute" format="2">
  <advance width="612"/>
  <unicode hex="01FA"/>
  <outline>
    <contour>
      <point x="379" y="641" type="line"/>
      <point x="375" y="641" type="line"/>
      <point x="181" y="268" type="line"/>
      <point x="437" y="268" type="line"/>
    </contour>
    <contour>
      <point x="406" y="786" type="qcurve" smooth="yes"/>
      <point x="465" y="786"/>
      <point x="476" y="846" type="qcurve" smooth="yes"/>
      <point x="480" y="866"/>
      <point x="480" y="876" type="qcurve" smooth="yes"/>
      <point x="480" y="925"/>
      <point x="426" y="925" type="qcurve" smooth="yes"/>
      <point x="368" y="925"/>
      <point x="356" y="865" type="qcurve" smooth="yes"/>
      <point x="352" y="846"/>
      <point x="352" y="835" type="qcurve" smooth="yes"/>
      <point x="352" y="786"/>
    </contour>
    <contour>
      <point x="477" y="0" type="line"/>
      <point x="443" y="217" type="line"/>
      <point x="154" y="217" type="line"/>
      <point x="41" y="0" type="line"/>
      <point x="-21" y="0" type="line"/>
      <point x="349" y="698" type="line"/>
      <point x="426" y="698" type="line"/>
      <point x="536" y="0" type="line"/>
    </contour>
    <contour>
      <point x="401" y="750" type="qcurve" smooth="yes"/>
      <point x="356" y="750"/>
      <point x="311" y="803"/>
      <point x="311" y="839" type="qcurve" smooth="yes"/>
      <point x="311" y="895"/>
      <point x="344" y="928" type="qcurve" smooth="yes"/>
      <point x="375" y="960"/>
      <point x="427" y="961" type="qcurve"/>
      <point x="504" y="1049" type="line"/>
      <point x="542" y="1021" type="line"/>
      <point x="472" y="954" type="line"/>
      <point x="488" y="947"/>
      <point x="499" y="935" type="qcurve"/>
      <point x="521" y="908"/>
      <point x="521" y="872" type="qcurve" smooth="yes"/>
      <point x="521" y="816"/>
      <point x="456" y="750"/>
    </contour>
  </outline>
</glyph>
<glyph name="oslashacute" format="2">
  <advance width="544"/>
  <unicode hex="01FF"/>
  <outline>
    <contour>
      <point x="238" y="37" type="qcurve" smooth="yes"/>
      <point x="305" y="37"/>
      <point x="400" y="133"/>
      <point x="418" y="221" type="qcurve" smooth="yes"/>
      <point x="430" y="282" type="line" smooth="yes"/>
      <point x="435" y="308"/>
      <point x="435" y="338" type="qcurve" smooth="yes"/>
      <point x="435" y="368"/>
      <point x="426" y="394" type="qcurve"/>
      <point x="137" y="81" type="line"/>
      <point x="171" y="37"/>
    </contour>
    <contour>
      <point x="407" y="431" type="line"/>
      <point x="370" y="475"/>
      <point x="306" y="475" type="qcurve" smooth="yes"/>
      <point x="239" y="475"/>
      <point x="144" y="379"/>
      <point x="126" y="291" type="qcurve" smooth="yes"/>
      <point x="114" y="230" type="line" smooth="yes"/>
      <point x="109" y="204"/>
      <point x="109" y="174" type="qcurve" smooth="yes"/>
      <point x="109" y="146"/>
      <point x="117" y="118" type="qcurve"/>
    </contour>
    <contour>
      <point x="1" y="-8" type="line"/>
      <point x="78" y="75" type="line"/>
      <point x="53" y="122"/>
      <point x="53" y="188" type="qcurve" smooth="yes"/>
      <point x="53" y="322"/>
      <point x="123" y="423" type="qcurve" smooth="yes"/>
      <point x="156" y="470"/>
      <point x="253" y="524"/>
      <point x="313" y="524" type="qcurve" smooth="yes"/>
      <point x="396" y="524"/>
      <point x="443" y="470" type="qcurve"/>
      <point x="514" y="547" type="line"/>
      <point x="543" y="520" type="line"/>
      <point x="466" y="437" type="line"/>
      <point x="491" y="389"/>
      <point x="491" y="324" type="qcurve" smooth="yes"/>
      <point x="491" y="191"/>
      <point x="422" y="90" type="qcurve"/>
      <point x="388" y="43"/>
      <point x="291" y="-12"/>
      <point x="231" y="-12" type="qcurve" smooth="yes"/>
      <point x="149" y="-12"/>
      <point x="101" y="42" type="qcurve"/>
      <point x="30" y="-35" type="line"/>
    </contour>
    <contour>
      <point x="298" y="605" type="line"/>
      <point x="418" y="769" type="line"/>
      <point x="466" y="742" type="line"/>
      <point x="333" y="586" type="line"/>
    </contour>
  </outline>
</glyph>
<glyph name="circumflex" format="2">
  <advance width="596"/>
  <unicode hex="02C6"/>
  <outline>
    <contour>
      <point x="329" y="714" type="line"/>
      <point x="187" y="594" type="line"/>
      <point x="158" y="618" type="line"/>
      <point x="301" y="756" type="line"/>
      <point x="367" y="756" type="line"/>
      <point x="459" y="617" type="line"/>
      <point x="427" y="594" type="line"/>
    </contour>
  </outline>
</glyph>
<glyph name="hungarumlaut" format="2">
  <advance width="596"/>
  <unicode hex="02DD"/>
  <outline>
    <contour>
      <point x="358" y="604" type="line"/>
      <point x="477" y="768" type="line"/>
      <point x="523" y="742" type="line"/>
      <point x="390" y="586" type="line"/>
    </contour>
    <contour>
      <point x="200" y="604" type="line"/>
      <point x="319" y="768" type="line"/>
      <point x="364" y="742" type="line"/>
      <point x="232" y="586" type="line"/>
    </contour>
  </outline>
</glyph>
<glyph name="dotaccentcomb" format="2">
  <unicode hex="0307"/>
  <outline>
    <contour>
      <point x="22" y="626" type="qcurve" smooth="yes"/>
      <point x="-12" y="626"/>
      <point x="-12" y="654" type="qcurve"/>
      <point x="-9" y="676" type="line"/>
      <point x="-3" y="708"/>
      <point x="34" y="708" type="qcurve" smooth="yes"/>
      <point x="68" y="708"/>
      <point x="68" y="680" type="qcurve" smooth="yes"/>
      <point x="68" y="673" type="line"/>
      <point x="65" y="658" type="line"/>
      <point x="60" y="626"/>
    </contour>
  </outline>
</glyph>
<glyph name="commaturnedabovecomb" format="2">
  <unicode hex="0312"/>
  <outline>
    <contour>
      <point x="15" y="597" type="qcurve" smooth="yes"/>
      <point x="-19" y="597"/>
      <point x="-19" y="625" type="qcurve" smooth="yes"/>
      <point x="-19" y="630"/>
      <point x="-16" y="647" type="qcurve"/>
      <point x="-2" y="712"/>
      <point x="50" y="763" type="qcurve"/>
      <point x="91" y="763" type="line"/>
      <point x="48" y="717"/>
      <point x="35" y="679" type="qcurve"/>
      <point x="62" y="676"/>
      <point x="62" y="653" type="qcurve" smooth="yes"/>
      <point x="62" y="619"/>
      <point x="46" y="606" type="qcurve"/>
      <point x="36" y="597"/>
    </contour>
  </outline>
</glyph>
<glyph name="tonos" format="2">
  <advance width="586"/>
  <unicode hex="0384"/>
  <outline>
    <contour>
      <point x="344" y="586" type="line"/>
      <point x="308" y="596" type="line"/>
      <point x="384" y="769" type="line"/>
      <point x="435" y="754" type="line"/>
    </contour>
  </outline>
</glyph>
<glyph name="Etatonos" format="2">
  <advance width="714"/>
  <unicode hex="0389"/>
  <outline>
    <contour>
      <point x="574" y="329" type="line"/>
      <point x="201" y="329" type="line"/>
      <point x="135" y="0" type="line"/>
      <point x="77" y="0" type="line"/>
      <point x="217" y="698" type="line"/>
      <point x="275" y="698" type="line"/>
      <point x="211" y="380" type="line"/>
      <point x="584" y="380" type="line"/>
      <point x="648" y="698" type="line"/>
      <point x="706" y="698" type="line"/>
      <point x="566" y="0" type="line"/>
      <point x="508" y="0" type="line"/>
    </contour>
    <contour>
      <point x="92" y="586" type="line"/>
      <point x="56" y="596" type="line"/>
      <point x="132" y="769" type="line"/>
      <point x="183" y="754" type="line"/>
    </contour>
  </outline>
</glyph>
<glyph name="Rho" format="2">
  <advance width="586"/>
  <unicode hex="03A1"/>
  <outline>
    <contour>
      <point x="176" y="359" type="line"/>
      <point x="383" y="359" type="line" smooth="yes"/>
      <point x="443" y="359"/>
      <point x="517" y="421"/>
      <point x="528" y="475" type="qcurve" smooth="yes"/>
      <point x="535" y="507"/>
      <point x="539" y="536"/>
      <point x="539" y="547" type="qcurve" smooth="yes"/>
      <point x="539" y="590"/>
      <point x="489" y="646"/>
      <point x="430" y="646" type="qcurve" smooth="yes"/>
      <point x="232" y="646" type="line"/>
    </contour>
    <contour>
      <point x="45" y="0" type="line"/>
      <point x="185" y="698" type="line"/>
      <point x="435" y="698" type="line" smooth="yes"/>
      <point x="519" y="698"/>
      <point x="599" y="607"/>
      <point x="599" y="538" type="qcurve" smooth="yes"/>
      <point x="599" y="487"/>
      <point x="568" y="403"/>
      <point x="509" y="341"/>
      <point x="426" y="307"/>
      <point x="374" y="307" type="qcurve" smooth="yes"/>
      <point x="165" y="307" type="line"/>
      <point x="103" y="0" type="line"/>
    </contour>
  </outline>
</glyph>
<glyph name="Tau" format="2">
  <advance width="552"/>
  <unicode hex="03A4"/>
  <outline>
    <contour>
      <point x="512" y="646" type="line"/>
      <point x="383" y="0" type="line"/>
      <point x="325" y="0" type="line"/>
      <point x="454" y="646" type="line"/>
      <point x="227" y="646" type="line"/>
      <point x="237" y="698" type="line"/>
      <point x="750" y="698" type="line"/>
      <point x="739" y="646" type="line"/>
    </contour>
  </outline>
</glyph>
<glyph name="zeta" format="2">
  <advance width="414"/>
  <unicode hex="03B6"/>
  <outline>
    <contour>
      <point x="172" y="740" type="line"/>
      <point x="497" y="740" type="line"/>
      <point x="487" y="692" type="line"/>
      <point x="240" y="442" type="line" smooth="yes"/>
      <point x="199" y="401"/>
      <point x="146" y="333"/>
      <point x="115" y="272"/>
      <point x="102" y="217"/>
      <point x="102" y="190" type="qcurve" smooth="yes"/>
      <point x="102" y="141"/>
      <point x="159" y="80"/>
      <point x="223" y="60" type="qcurve"/>
      <point x="295" y="39" type="line"/>
      <point x="333" y="29"/>
      <point x="333" y="-4" type="qcurve" smooth="yes"/>
      <point x="333" y="-20"/>
      <point x="322" y="-45" type="qcurve" smooth="yes"/>
      <point x="267" y="-165" type="line"/>
      <point x="219" y="-145" type="line"/>
      <point x="280" y="-13" type="line"/>
      <point x="212" y="7" type="line" smooth="yes"/>
      <point x="124" y="33"/>
      <point x="46" y="121"/>
      <point x="46" y="189" type="qcurve" smooth="yes"/>
      <point x="46" y="222"/>
      <point x="62" y="287"/>
      <point x="99" y="356"/>
      <point x="162" y="434"/>
      <point x="209" y="481" type="qcurve" smooth="yes"/>
      <point x="422" y="692" type="line"/>
      <point x="423" y="695" type="line"/>
      <point x="350" y="691" type="line"/>
      <point x="162" y="691" type="line"/>
    </contour>
  </outline>
</glyph>
<glyph name="sigma" format="2">
  <advance width="560"/>
  <unicode hex="03C3"/>
  <outline>
    <contour>
      <point x="318" y="463" type="line" smooth="yes"/>
      <point x="244" y="463"/>
      <point x="141" y="367"/>
      <point x="124" y="279" type="qcurve"/>
      <point x="113" y="230" type="line"/>
      <point x="111" y="216"/>
      <point x="109" y="189"/>
      <point x="109" y="174" type="qcurve" smooth="yes"/>
      <point x="109" y="115"/>
      <point x="174" y="37"/>
      <point x="239" y="37" type="qcurve" smooth="yes"/>
      <point x="306" y="37"/>
      <point x="402" y="133"/>
      <point x="419" y="221" type="qcurve" smooth="yes"/>
      <point x="428" y="267" type="line"/>
      <point x="430" y="280"/>
      <point x="435" y="308"/>
      <point x="435" y="322" type="qcurve" smooth="yes"/>
      <point x="435" y="370"/>
      <point x="414" y="434"/>
      <point x="385" y="463" type="qcurve"/>
    </contour>
    <contour>
      <point x="429" y="463" type="line"/>
      <point x="427" y="458" type="line"/>
      <point x="458" y="432"/>
      <point x="491" y="360"/>
      <point x="491" y="315" type="qcurve" smooth="yes"/>
      <point x="491" y="252"/>
      <point x="455" y="134"/>
      <point x="388" y="43"/>
      <point x="292" y="-12"/>
      <point x="232" y="-12" type="qcurve" smooth="yes"/>
      <point x="151" y="-12"/>
      <point x="53" y="95"/>
      <point x="53" y="188" type="qcurve" smooth="yes"/>
      <point x="53" y="252"/>
      <point x="91" y="370"/>
      <point x="160" y="459"/>
      <point x="258" y="512"/>
      <point x="318" y="512" type="qcurve" smooth="yes"/>
      <point x="571" y="512" type="line"/>
      <point x="562" y="463" type="line"/>
    </contour>
  </outline>
</glyph>
<glyph name="Iukrcyr" format="2">
  <advance width="251"/>
  <unicode hex="0406"/>
  <outline>
    <contour>
      <point x="45" y="0" type="line"/>
      <point x="185" y="698" type="line"/>
      <point x="243" y="698" type="line"/>
      <point x="103" y="0" type="line"/>
    </contour>
  </outline>
</glyph>
<glyph name="Dzhecyr" format="2">
  <advance width="669"/>
  <unicode hex="040F"/>
  <outline>
    <contour>
      <point x="226" y="-150" type="line"/>
      <point x="256" y="0" type="line"/>
      <point x="45" y="0" type="line"/>
      <point x="185" y="698" type="line"/>
      <point x="243" y="698" type="line"/>
      <point x="113" y="52" type="line"/>
      <point x="472" y="52" type="line"/>
      <point x="602" y="698" type="line"/>
      <point x="660" y="698" type="line"/>
      <point x="520" y="0" type="line"/>
      <point x="309" y="0" type="line"/>
      <point x="279" y="-150" type="line"/>
    </contour>
  </outline>
</glyph>
<glyph name="Emcyr" format="2">
  <advance width="781"/>
  <unicode hex="041C"/>
  <outline>
    <contour>
      <point x="577" y="0" type="line"/>
      <point x="703" y="620" type="line"/>
      <point x="698" y="620" type="line"/>
      <point x="381" y="193" type="line"/>
      <point x="230" y="619" type="line"/>
      <point x="226" y="619" type="line"/>
      <point x="102" y="0" type="line"/>
      <point x="45" y="0" type="line"/>
      <point x="185" y="698" type="line"/>
      <point x="261" y="698" type="line"/>
      <point x="398" y="303" type="line"/>
      <point x="401" y="303" type="line"/>
      <point x="692" y="698" type="line"/>
      <point x="774" y="698" type="line"/>
      <point x="634" y="0" type="line"/>
    </contour>
  </outline>
</glyph>
<glyph name="softcyr" format="2">
  <advance width="491"/>
  <unicode hex="044C"/>
  <outline>
    <contour>
      <point x="245" y="49" type="line" smooth="yes"/>
      <point x="352" y="49"/>
      <point x="371" y="142" type="qcurve"/>
      <point x="378" y="169"/>
      <point x="378" y="193" type="qcurve" smooth="yes"/>
      <point x="378" y="230"/>
      <point x="335" y="266"/>
      <point x="283" y="266" type="qcurve" smooth="yes"/>
      <point x="151" y="266" type="line"/>
      <point x="107" y="49" type="line"/>
    </contour>
    <contour>
      <point x="43" y="0" type="line"/>
      <point x="145" y="512" type="line"/>
      <point x="200" y="512" type="line"/>
      <point x="161" y="315" type="line"/>
      <point x="291" y="315" type="line" smooth="yes"/>
      <point x="367" y="315"/>
      <point x="433" y="251"/>
      <point x="433" y="192" type="qcurve" smooth="yes"/>
      <point x="433" y="113"/>
      <point x="389" y="61" type="qcurve" smooth="yes"/>
      <point x="338" y="0"/>
      <point x="245" y="0" type="qcurve" smooth="yes"/>
    </contour>
  </outline>
</glyph>
<glyph name="kabashkcyr" format="2">
  <advance width="583"/>
  <unicode hex="04A1"/>
  <outline>
    <contour>
      <point x="456" y="0" type="line" smooth="yes"/>
      <point x="428" y="0"/>
      <point x="398" y="25"/>
      <point x="386" y="55" type="qcurve" smooth="yes"/>
      <point x="306" y="243" type="line"/>
      <point x="209" y="243" type="line"/>
      <point x="161" y="0" type="line"/>
      <point x="106" y="0" type="line"/>
      <point x="198" y="463" type="line"/>
      <point x="64" y="463" type="line"/>
      <point x="74" y="512" type="line"/>
      <point x="263" y="512" type="line"/>
      <point x="219" y="290" type="line"/>
      <point x="315" y="290" type="line"/>
      <point x="471" y="476" type="line" smooth="yes"/>
      <point x="488" y="496"/>
      <point x="519" y="512"/>
      <point x="542" y="512" type="qcurve" smooth="yes"/>
      <point x="588" y="512" type="line"/>
      <point x="578" y="463" type="line"/>
      <point x="520" y="463" type="line"/>
      <point x="385" y="302" type="line" smooth="yes"/>
      <point x="371" y="285"/>
      <point x="349" y="270"/>
      <point x="334" y="268" type="qcurve"/>
      <point x="333" y="264" type="line"/>
      <point x="348" y="261"/>
      <point x="367" y="241"/>
      <point x="376" y="218" type="qcurve" smooth="yes"/>
      <point x="447" y="49" type="line"/>
      <point x="503" y="49" type="line"/>
      <point x="493" y="0" type="line"/>
    </contour>
  </outline>
</glyph>
<glyph name="chevertcyr" format="2">
  <advance width="514"/>
  <unicode hex="04B9"/>
  <outline>
    <contour>
      <point x="313" y="0" type="line"/>
      <point x="370" y="281" type="line"/>
      <point x="365" y="281" type="line"/>
      <point x="317" y="199"/>
      <point x="237" y="187" type="qcurve"/>
      <point x="218" y="91" type="line"/>
      <point x="175" y="91" type="line"/>
      <point x="194" y="184" type="line"/>
      <point x="133" y="187"/>
      <point x="68" y="252"/>
      <point x="68" y="296" type="qcurve" smooth="yes"/>
      <point x="68" y="328"/>
      <point x="75" y="363" type="qcurve" smooth="yes"/>
      <point x="105" y="512" type="line"/>
      <point x="160" y="512" type="line"/>
      <point x="130" y="364" type="line" smooth="yes"/>
      <point x="124" y="333"/>
      <point x="124" y="307" type="qcurve" smooth="yes"/>
      <point x="124" y="243"/>
      <point x="204" y="235" type="qcurve"/>
      <point x="234" y="385" type="line"/>
      <point x="277" y="385" type="line"/>
      <point x="247" y="237" type="line"/>
      <point x="309" y="247"/>
      <point x="379" y="330"/>
      <point x="387" y="372" type="qcurve" smooth="yes"/>
      <point x="416" y="512" type="line"/>
      <point x="471" y="512" type="line"/>
      <point x="368" y="0" type="line"/>
    </contour>
  </outline>
</glyph>
<glyph name="Odieresiscyr" format="2">
  <advance width="671"/>
  <unicode hex="04E6"/>
  <outline>
    <contour>
      <point x="300" y="40" type="qcurve" smooth="yes"/>
      <point x="400" y="40"/>
      <point x="533" y="179"/>
      <point x="558" y="301" type="qcurve" smooth="yes"/>
      <point x="575" y="384" type="line"/>
      <point x="583" y="434"/>
      <point x="583" y="468" type="qcurve" smooth="yes"/>
      <point x="583" y="556"/>
      <point x="489" y="658"/>
      <point x="401" y="658" type="qcurve" smooth="yes"/>
      <point x="301" y="658"/>
      <point x="168" y="519"/>
      <point x="143" y="397" type="qcurve" smooth="yes"/>
      <point x="126" y="314" type="line"/>
      <point x="118" y="265"/>
      <point x="118" y="230" type="qcurve" smooth="yes"/>
      <point x="118" y="142"/>
      <point x="212" y="40"/>
    </contour>
    <contour>
      <point x="295" y="-12" type="qcurve" smooth="yes"/>
      <point x="193" y="-12"/>
      <point x="60" y="120"/>
      <point x="60" y="244" type="qcurve" smooth="yes"/>
      <point x="60" y="326"/>
      <point x="104" y="491"/>
      <point x="190" y="627"/>
      <point x="320" y="710"/>
      <point x="406" y="710" type="qcurve" smooth="yes"/>
      <point x="508" y="710"/>
      <point x="641" y="579"/>
      <point x="641" y="454" type="qcurve" smooth="yes"/>
      <point x="641" y="372"/>
      <point x="598" y="207"/>
      <point x="511" y="71"/>
      <point x="381" y="-12"/>
    </contour>
    <contour>
      <point x="341" y="800" type="qcurve" smooth="yes"/>
      <point x="307" y="800"/>
      <point x="307" y="828" type="qcurve"/>
      <point x="310" y="850" type="line"/>
      <point x="316" y="882"/>
      <point x="353" y="882" type="qcurve" smooth="yes"/>
      <point x="387" y="882"/>
      <point x="387" y="854" type="qcurve" smooth="yes"/>
      <point x="387" y="847" type="line"/>
      <point x="384" y="832" type="line"/>
      <point x="379" y="800"/>
    </contour>
    <contour>
      <point x="523" y="800" type="qcurve" smooth="yes"/>
      <point x="489" y="800"/>
      <point x="489" y="828" type="qcurve"/>
      <point x="492" y="850" type="line"/>
      <point x="498" y="882"/>
      <point x="535" y="882" type="qcurve" smooth="yes"/>
      <point x="569" y="882"/>
      <point x="569" y="854" type="qcurve" smooth="yes"/>
      <point x="569" y="847" type="line"/>
      <point x="566" y="832" type="line"/>
      <point x="561" y="800"/>
    </contour>
  </outline>
</glyph>
<glyph name="Wdieresis" format="2">
  <advance width="863"/>
  <unicode hex="1E84"/>
  <outline>
    <contour>
      <point x="545" y="0" type="line"/>
      <point x="507" y="628" type="line"/>
      <point x="503" y="628" type="line"/>
      <point x="213" y="0" type="line"/>
      <point x="143" y="0" type="line"/>
      <point x="110" y="698" type="line"/>
      <point x="168" y="698" type="line"/>
      <point x="193" y="76" type="line"/>
      <point x="196" y="76" type="line"/>
      <point x="482" y="698" type="line"/>
      <point x="553" y="698" type="line"/>
      <point x="591" y="76" type="line"/>
      <point x="594" y="76" type="line"/>
      <point x="872" y="698" type="line"/>
      <point x="933" y="698" type="line"/>
      <point x="613" y="0" type="line"/>
    </contour>
    <contour>
      <point x="444" y="800" type="qcurve" smooth="yes"/>
      <point x="410" y="800"/>
      <point x="410" y="828" type="qcurve"/>
      <point x="413" y="850" type="line"/>
      <point x="419" y="882"/>
      <point x="456" y="882" type="qcurve" smooth="yes"/>
      <point x="490" y="882"/>
      <point x="490" y="854" type="qcurve" smooth="yes"/>
      <point x="490" y="847" type="line"/>
      <point x="487" y="832" type="line"/>
      <point x="482" y="800"/>
    </contour>
    <contour>
      <point x="626" y="800" type="qcurve" smooth="yes"/>
      <point x="592" y="800"/>
      <point x="592" y="828" type="qcurve"/>
      <point x="595" y="850" type="line"/>
      <point x="601" y="882"/>
      <point x="638" y="882" type="qcurve" smooth="yes"/>
      <point x="672" y="882"/>
      <point x="672" y="854" type="qcurve" smooth="yes"/>
      <point x="672" y="847" type="line"/>
      <point x="669" y="832" type="line"/>
      <point x="664" y="800"/>
    </contour>
  </outline>
</glyph>
<glyph name="Acircumflexgrave" format="2">
  <advance width="612"/>
  <unicode hex="1EA6"/>
  <outline>
    <contour>
      <point x="379" y="641" type="line"/>
      <point x="375" y="641" type="line"/>
      <point x="181" y="268" type="line"/>
      <point x="437" y="268" type="line"/>
    </contour>
    <contour>
      <point x="477" y="0" type="line"/>
      <point x="443" y="217" type="line"/>
      <point x="154" y="217" type="line"/>
      <point x="41" y="0" type="line"/>
      <point x="-21" y="0" type="line"/>
      <point x="349" y="698" type="line"/>
      <point x="426" y="698" type="line"/>
      <point x="536" y="0" type="line"/>
    </contour>
    <contour>
      <point x="189" y="1030" type="line"/>
      <point x="238" y="1053" type="line"/>
      <point x="307" y="889" type="line"/>
      <point x="273" y="873" type="line"/>
    </contour>
    <contour>
      <point x="422" y="877" type="line"/>
      <point x="284" y="758" type="line"/>
      <point x="255" y="782" type="line"/>
      <point x="391" y="915" type="line"/>
      <point x="458" y="915" type="line"/>
      <point x="551" y="782" type="line"/>
      <point x="520" y="758" type="line"/>
    </contour>
  </outline>
</glyph>
<glyph name="Ecircumflexacute" format="2">
  <advance width="560"/>
  <unicode hex="1EBE"/>
  <outline>
    <contour>
      <point x="45" y="0" type="line"/>
      <point x="185" y="698" type="line"/>
      <point x="583" y="698" type="line"/>
      <point x="572" y="646" type="line"/>
      <point x="233" y="646" type="line"/>
      <point x="179" y="380" type="line"/>
      <point x="494" y="380" type="line"/>
      <point x="484" y="329" type="line"/>
      <point x="169" y="329" type="line"/>
      <point x="114" y="52" type="line"/>
      <point x="463" y="52" type="line"/>
      <point x="453" y="0" type="line"/>
    </contour>
    <contour>
      <point x="513" y="890" type="line"/>
      <point x="632" y="1054" type="line"/>
      <point x="680" y="1027" type="line"/>
      <point x="548" y="871" type="line"/>
    </contour>
    <contour>
      <point x="416" y="877" type="line"/>
      <point x="278" y="758" type="line"/>
      <point x="248" y="782" type="line"/>
      <point x="385" y="915" type="line"/>
      <point x="452" y="915" type="line"/>
      <point x="545" y="782" type="line"/>
      <point x="514" y="758" type="line"/>
    </contour>
  </outline>
</glyph>
<glyph name="Ecircumflextilde" format="2">
  <advance width="560"/>
  <unicode hex="1EC4"/>
  <outline>
    <contour>
      <point x="45" y="0" type="line"/>
      <point x="185" y="698" type="line"/>
      <point x="583" y="698" type="line"/>
      <point x="572" y="646" type="line"/>
      <point x="233" y="646" type="line"/>
      <point x="179" y="380" type="line"/>
      <point x="494" y="380" type="line"/>
      <point x="484" y="329" type="line"/>
      <point x="169" y="329" type="line"/>
      <point x="114" y="52" type="line"/>
      <point x="463" y="52" type="line"/>
      <point x="453" y="0" type="line"/>
    </contour>
    <contour>
      <point x="493" y="945" type="qcurve" smooth="yes"/>
      <point x="470" y="945"/>
      <point x="436" y="961"/>
      <point x="419" y="973" type="qcurve" smooth="yes"/>
      <point x="384" y="997"/>
      <point x="355" y="997" type="qcurve" smooth="yes"/>
      <point x="321" y="997"/>
      <point x="291" y="968" type="qcurve"/>
      <point x="270" y="995" type="line"/>
      <point x="312" y="1043"/>
      <point x="363" y="1043" type="qcurve" smooth="yes"/>
      <point x="386" y="1043"/>
      <point x="420" y="1027"/>
      <point x="437" y="1015" type="qcurve"/>
      <point x="473" y="991"/>
      <point x="501" y="991" type="qcurve" smooth="yes"/>
      <point x="536" y="991"/>
      <point x="565" y="1020" type="qcurve"/>
      <point x="586" y="993" type="line"/>
      <point x="544" y="945"/>
    </contour>
    <contour>
      <point x="416" y="877" type="line"/>
      <point x="279" y="759" type="line"/>
      <point x="249" y="783" type="line"/>
      <point x="386" y="915" type="line"/>
      <point x="453" y="915" type="line"/>
      <point x="546" y="782" type="line"/>
      <point x="515" y="759" type="line"/>
    </contour>
  </outline>
</glyph>
<glyph name="Ihoi" format="2">
  <advance width="251"/>
  <unicode hex="1EC8"/>
  <outline>
    <contour>
      <point x="45" y="0" type="line"/>
      <point x="185" y="698" type="line"/>
      <point x="243" y="698" type="line"/>
      <point x="103" y="0" type="line"/>
    </contour>
    <contour>
      <point x="200" y="772" type="line"/>
      <point x="282" y="884" type="line"/>
      <point x="157" y="884" type="line"/>
      <point x="163" y="928" type="line"/>
      <point x="280" y="928" type="line" smooth="yes"/>
      <point x="309" y="928"/>
      <point x="327" y="906"/>
      <point x="327" y="892" type="qcurve" smooth="yes"/>
      <point x="327" y="873"/>
      <point x="301" y="835"/>
      <point x="275" y="806" type="qcurve"/>
      <point x="231" y="754" type="line"/>
    </contour>
  </outline>
</glyph>
<glyph name="Ocircumflexhoi" format="2">
  <advance width="671"/>
  <unicode hex="1ED4"/>
  <outline>
    <contour>
      <point x="300" y="40" type="qcurve" smooth="yes"/>
      <point x="400" y="40"/>
      <point x="533" y="179"/>
      <point x="558" y="301" type="qcurve" smooth="yes"/>
      <point x="575" y="384" type="line"/>
      <point x="583" y="434"/>
      <point x="583" y="468" type="qcurve" smooth="yes"/>
      <point x="583" y="556"/>
      <point x="489" y="658"/>
      <point x="401" y="658" type="qcurve" smooth="yes"/>
      <point x="301" y="658"/>
      <point x="168" y="519"/>
      <point x="143" y="397" type="qcurve" smooth="yes"/>
      <point x="126" y="314" type="line"/>
      <point x="118" y="265"/>
      <point x="118" y="230" type="qcurve" smooth="yes"/>
      <point x="118" y="142"/>
      <point x="212" y="40"/>
    </contour>
    <contour>
      <point x="295" y="-12" type="qcurve" smooth="yes"/>
      <point x="193" y="-12"/>
      <point x="60" y="120"/>
      <point x="60" y="244" type="qcurve" smooth="yes"/>
      <point x="60" y="326"/>
      <point x="104" y="491"/>
      <point x="190" y="627"/>
      <point x="320" y="710"/>
      <point x="406" y="710" type="qcurve" smooth="yes"/>
      <point x="508" y="710"/>
      <point x="641" y="579"/>
      <point x="641" y="454" type="qcurve" smooth="yes"/>
      <point x="641" y="372"/>
      <point x="598" y="207"/>
      <point x="511" y="71"/>
      <point x="381" y="-12"/>
    </contour>
    <contour>
      <point x="542" y="885" type="line"/>
      <point x="623" y="1000" type="line"/>
      <point x="498" y="1000" type="line"/>
      <point x="505" y="1041" type="line"/>
      <point x="622" y="1041" type="line" smooth="yes"/>
      <point x="668" y="1041"/>
      <point x="668" y="1005" type="qcurve" smooth="yes"/>
      <point x="668" y="987"/>
      <point x="643" y="947"/>
      <point x="616" y="917" type="qcurve" smooth="yes"/>
      <point x="573" y="867" type="line"/>
    </contour>
    <contour>
      <point x="448" y="877" type="line"/>
      <point x="310" y="758" type="line"/>
      <point x="281" y="782" type="line"/>
      <point x="417" y="915" type="line"/>
      <point x="484" y="915" type="line"/>
      <point x="577" y="782" type="line"/>
      <point x="546" y="758" type="line"/>
    </contour>
  </outline>
</glyph>
<glyph name="uhorntilde" format="2">
  <advance width="558"/>
  <unicode hex="1EEF"/>
  <outline>
    <contour>
      <point x="199" y="-12" type="qcurve" smooth="yes"/>
      <point x="133" y="-12"/>
      <point x="67" y="61"/>
      <point x="67" y="127" type="qcurve" smooth="yes"/>
      <point x="67" y="156"/>
      <point x="74" y="193" type="qcurve" smooth="yes"/>
      <point x="138" y="512" type="line"/>
      <point x="193" y="512" type="line"/>
      <point x="129" y="193" type="line" smooth="yes"/>
      <point x="124" y="167"/>
      <point x="124" y="136" type="qcurve" smooth="yes"/>
      <point x="124" y="88"/>
      <point x="167" y="38"/>
      <point x="215" y="38" type="qcurve" smooth="yes"/>
      <point x="279" y="38"/>
      <point x="324" y="87" type="qcurve"/>
      <point x="372" y="142"/>
      <point x="390" y="215" type="qcurve"/>
      <point x="449" y="512" type="line"/>
      <point x="532" y="512" type="line"/>
      <point x="554" y="624" type="line"/>
      <point x="603" y="624" type="line"/>
      <point x="583" y="523" type="line"/>
      <point x="580" y="500"/>
      <point x="556" y="473"/>
      <point x="528" y="473" type="qcurve" smooth="yes"/>
      <point x="496" y="473" type="line"/>
      <point x="412" y="49" type="line"/>
      <point x="489" y="49" type="line"/>
      <point x="480" y="0" type="line"/>
      <point x="407" y="0" type="line" smooth="yes"/>
      <point x="382" y="0"/>
      <point x="358" y="25"/>
      <point x="358" y="46" type="qcurve" smooth="yes"/>
      <point x="358" y="54"/>
      <point x="367" y="103" type="qcurve"/>
      <point x="363" y="103" type="line"/>
      <point x="336" y="45"/>
      <point x="256" y="-12"/>
    </contour>
    <contour>
      <point x="408" y="620" type="qcurve" smooth="yes"/>
      <point x="389" y="620"/>
      <point x="363" y="632"/>
      <point x="348" y="642" type="qcurve" smooth="yes"/>
      <point x="323" y="658"/>
      <point x="299" y="669"/>
      <point x="285" y="669" type="qcurve" smooth="yes"/>
      <point x="257" y="669"/>
      <point x="223" y="639" type="qcurve"/>
      <point x="199" y="669" type="line"/>
      <point x="241" y="715"/>
      <point x="290" y="715" type="qcurve" smooth="yes"/>
      <point x="309" y="715"/>
      <point x="335" y="703"/>
      <point x="350" y="693" type="qcurve" smooth="yes"/>
      <point x="375" y="677"/>
      <point x="399" y="666"/>
      <point x="413" y="666" type="qcurve" smooth="yes"/>
      <point x="442" y="666"/>
      <point x="475" y="696" type="qcurve"/>
      <point x="499" y="666" type="line"/>
      <point x="457" y="620"/>
    </contour>
  </outline>
</glyph>
<glyph name="quotedblleft" format="2">
  <advance width="443"/>
  <unicode hex="201C"/>
  <outline>
    <contour>
      <point x="364" y="510" type="qcurve"/>
      <point x="323" y="511"/>
      <point x="323" y="542" type="qcurve" smooth="yes"/>
      <point x="323" y="588"/>
      <point x="364" y="657" type="qcurve" smooth="yes"/>
      <point x="393" y="705"/>
      <point x="439" y="740" type="qcurve"/>
      <point x="487" y="740" type="line"/>
      <point x="411" y="671"/>
      <point x="388" y="608" type="qcurve"/>
      <point x="418" y="604"/>
      <point x="418" y="578" type="qcurve" smooth="yes"/>
      <point x="418" y="562"/>
      <point x="414" y="552" type="qcurve"/>
      <point x="411" y="536"/>
      <point x="390" y="510"/>
    </contour>
    <contour>
      <point x="182" y="510" type="qcurve"/>
      <point x="141" y="511"/>
      <point x="141" y="542" type="qcurve" smooth="yes"/>
      <point x="141" y="588"/>
      <point x="182" y="657" type="qcurve" smooth="yes"/>
      <point x="211" y="705"/>
      <point x="257" y="740" type="qcurve"/>
      <point x="305" y="740" type="line"/>
      <point x="229" y="671"/>
      <point x="206" y="608" type="qcurve"/>
      <point x="236" y="604"/>
      <point x="236" y="578" type="qcurve" smooth="yes"/>
      <point x="236" y="562"/>
      <point x="232" y="552" type="qcurve"/>
      <point x="229" y="536"/>
      <point x="208" y="510"/>
    </contour>
  </outline>
</glyph>
<glyph name="quotedblright" format="2">
  <advance width="443"/>
  <unicode hex="201D"/>
  <outline>
    <contour>
      <point x="289" y="520" type="line"/>
      <point x="366" y="589"/>
      <point x="388" y="652" type="qcurve"/>
      <point x="358" y="657"/>
      <point x="358" y="682" type="qcurve" smooth="yes"/>
      <point x="358" y="698"/>
      <point x="362" y="708" type="qcurve"/>
      <point x="365" y="724"/>
      <point x="386" y="750"/>
      <point x="412" y="750" type="qcurve" smooth="yes"/>
      <point x="453" y="750"/>
      <point x="453" y="718" type="qcurve" smooth="yes"/>
      <point x="453" y="701"/>
      <point x="450" y="692" type="qcurve"/>
      <point x="440" y="651"/>
      <point x="384" y="555"/>
      <point x="337" y="520" type="qcurve"/>
    </contour>
    <contour>
      <point x="107" y="520" type="line"/>
      <point x="184" y="589"/>
      <point x="206" y="652" type="qcurve"/>
      <point x="176" y="657"/>
      <point x="176" y="682" type="qcurve" smooth="yes"/>
      <point x="176" y="698"/>
      <point x="180" y="708" type="qcurve"/>
      <point x="183" y="724"/>
      <point x="204" y="750"/>
      <point x="230" y="750" type="qcurve" smooth="yes"/>
      <point x="271" y="750"/>
      <point x="271" y="718" type="qcurve" smooth="yes"/>
      <point x="271" y="701"/>
      <point x="268" y="692" type="qcurve"/>
      <point x="258" y="651"/>
      <point x="202" y="555"/>
      <point x="155" y="520" type="qcurve"/>
    </contour>
  </outline>
</glyph>
<glyph name="newsheqel" format="2">
  <advance width="751"/>
  <unicode hex="20AA"/>
  <outline>
    <contour>
      <point x="45" y="0" type="line"/>
      <point x="185" y="698" type="line"/>
      <point x="411" y="698" type="line" smooth="yes"/>
      <point x="473" y="698"/>
      <point x="544" y="632"/>
      <point x="544" y="568" type="qcurve" smooth="yes"/>
      <point x="544" y="544"/>
      <point x="539" y="516" type="qcurve" smooth="yes"/>
      <point x="465" y="146" type="line"/>
      <point x="409" y="146" type="line"/>
      <point x="485" y="525" type="line" smooth="yes"/>
      <point x="490" y="550"/>
      <point x="490" y="568" type="qcurve" smooth="yes"/>
      <point x="490" y="649"/>
      <point x="401" y="649" type="qcurve" smooth="yes"/>
      <point x="231" y="649" type="line"/>
      <point x="101" y="0" type="line"/>
    </contour>
    <contour>
      <point x="212" y="0" type="line"/>
      <point x="323" y="552" type="line"/>
      <point x="379" y="552" type="line"/>
      <point x="279" y="49" type="line"/>
      <point x="449" y="49" type="line" smooth="yes"/>
      <point x="497" y="49"/>
      <point x="529" y="74" type="qcurve"/>
      <point x="566" y="101"/>
      <point x="581" y="171" type="qcurve" smooth="yes"/>
      <point x="687" y="698" type="line"/>
      <point x="743" y="698" type="line"/>
      <point x="639" y="183" type="line" smooth="yes"/>
      <point x="602" y="0"/>
      <point x="443" y="0" type="qcurve" smooth="yes"/>
    </contour>
  </outline>
</glyph>
<glyph name="oneseventh" format="2">
  <advance width="841"/>
  <unicode hex="2150"/>
  <outline>
    <contour>
      <point x="220" y="329" type="line"/>
      <point x="176" y="329" type="line"/>
      <point x="241" y="656" type="line"/>
      <point x="152" y="612" type="line"/>
      <point x="161" y="655" type="line"/>
      <point x="245" y="698" type="line"/>
      <point x="293" y="698" type="line"/>
    </contour>
    <contour>
      <point x="139" y="0" type="line"/>
      <point x="86" y="0" type="line"/>
      <point x="693" y="698" type="line"/>
      <point x="746" y="698" type="line"/>
    </contour>
    <contour>
      <point x="598" y="0" type="line"/>
      <point x="549" y="0" type="line"/>
      <point x="761" y="332" type="line"/>
      <point x="543" y="332" type="line"/>
      <point x="551" y="369" type="line"/>
      <point x="814" y="369" type="line"/>
      <point x="806" y="329" type="line"/>
    </contour>
  </outline>
</glyph>
<glyph name="oneeighth" format="2">
  <advance width="838"/>
  <unicode hex="215B"/>
  <outline>
    <contour>
      <point x="612" y="29" type="qcurve" smooth="yes"/>
      <point x="703" y="29"/>
      <point x="714" y="97" type="qcurve"/>
      <point x="716" y="104"/>
      <point x="716" y="115" type="qcurve" smooth="yes"/>
      <point x="716" y="173"/>
      <point x="633" y="173" type="qcurve" smooth="yes"/>
      <point x="543" y="173"/>
      <point x="531" y="105" type="qcurve"/>
      <point x="529" y="87" type="line"/>
      <point x="530" y="29"/>
    </contour>
    <contour>
      <point x="643" y="207" type="qcurve" smooth="yes"/>
      <point x="735" y="207"/>
      <point x="737" y="287" type="qcurve"/>
      <point x="736" y="340"/>
      <point x="665" y="340" type="qcurve" smooth="yes"/>
      <point x="571" y="340"/>
      <point x="571" y="260" type="qcurve"/>
      <point x="573" y="207"/>
    </contour>
    <contour>
      <point x="609" y="-6" type="qcurve" smooth="yes"/>
      <point x="549" y="-6"/>
      <point x="484" y="44"/>
      <point x="484" y="85" type="qcurve" smooth="yes"/>
      <point x="484" y="169"/>
      <point x="581" y="190" type="qcurve"/>
      <point x="582" y="194" type="line"/>
      <point x="528" y="213"/>
      <point x="528" y="265" type="qcurve" smooth="yes"/>
      <point x="528" y="311"/>
      <point x="604" y="375"/>
      <point x="670" y="375" type="qcurve" smooth="yes"/>
      <point x="721" y="375"/>
      <point x="781" y="328"/>
      <point x="781" y="290" type="qcurve" smooth="yes"/>
      <point x="781" y="256"/>
      <point x="739" y="206"/>
      <point x="697" y="194" type="qcurve"/>
      <point x="696" y="190" type="line"/>
      <point x="761" y="173"/>
      <point x="761" y="114" type="qcurve" smooth="yes"/>
      <point x="761" y="62"/>
      <point x="681" y="-6"/>
    </contour>
    <contour>
      <point x="86" y="0" type="line"/>
      <point x="693" y="698" type="line"/>
      <point x="746" y="698" type="line"/>
      <point x="139" y="0" type="line"/>
    </contour>
    <contour>
      <point x="293" y="698" type="line"/>
      <point x="220" y="329" type="line"/>
      <point x="176" y="329" type="line"/>
      <point x="241" y="656" type="line"/>
      <point x="152" y="612" type="line"/>
      <point x="161" y="655" type="line"/>
      <point x="245" y="698" type="line"/>
    </contour>
  </outline>
</glyph>
<glyph name="radical" format="2">
  <advance width="589"/>
  <unicode hex="221A"/>
  <outline>
    <contour>
      <point x="207" y="0" type="line"/>
      <point x="173" y="467" type="line"/>
      <point x="67" y="467" type="line"/>
      <point x="77" y="512" type="line"/>
      <point x="221" y="512" type="line"/>
      <point x="254" y="51" type="line"/>
      <point x="258" y="51" type="line"/>
      <point x="571" y="698" type="line"/>
      <point x="628" y="698" type="line"/>
      <point x="285" y="0" type="line"/>
    </contour>
  </outline>
</glyph>
<glyph name="greaterequal" format="2">
  <advance width="600"/>
  <unicode hex="2265"/>
  <outline>
    <contour>
      <point x="44" y="0" type="line"/>
      <point x="54" y="48" type="line"/>
      <point x="470" y="48" type="line"/>
      <point x="460" y="0" type="line"/>
    </contour>
    <contour>
      <point x="79" y="174" type="line"/>
      <point x="477" y="353" type="line"/>
      <point x="478" y="358" type="line"/>
      <point x="152" y="537" type="line"/>
      <point x="163" y="592" type="line"/>
      <point x="537" y="383" type="line"/>
      <point x="524" y="323" type="line"/>
      <point x="67" y="113" type="line"/>
    </contour>
  </outline>
</glyph>
<glyph name="five.subs" format="2">
  <advance width="341"/>
  <outline>
    <contour>
      <point x="191" y="464" type="qcurve" smooth="yes"/>
      <point x="97" y="464"/>
      <point x="68" y="528" type="qcurve"/>
      <point x="102" y="551" type="line"/>
      <point x="113" y="528"/>
      <point x="153" y="501"/>
      <point x="192" y="501" type="qcurve" smooth="yes"/>
      <point x="240" y="501"/>
      <point x="283" y="542"/>
      <point x="289" y="576" type="qcurve"/>
      <point x="292" y="589"/>
      <point x="292" y="602" type="qcurve" smooth="yes"/>
      <point x="292" y="629"/>
      <point x="260" y="663"/>
      <point x="225" y="663" type="qcurve" smooth="yes"/>
      <point x="196" y="663"/>
      <point x="156" y="647"/>
      <point x="139" y="631" type="qcurve"/>
      <point x="99" y="636" type="line"/>
      <point x="155" y="839" type="line"/>
      <point x="368" y="839" type="line"/>
      <point x="360" y="802" type="line"/>
      <point x="183" y="802" type="line"/>
      <point x="141" y="655" type="line"/>
      <point x="144" y="655" type="line"/>
      <point x="178" y="699"/>
      <point x="240" y="699" type="qcurve"/>
      <point x="338" y="696"/>
      <point x="338" y="601" type="qcurve" smooth="yes"/>
      <point x="338" y="547"/>
      <point x="265" y="464"/>
    </contour>
  </outline>
</glyph>
<glyph name="four.subs" format="2">
  <advance width="337"/>
  <outline>
    <contour>
      <point x="290" y="789" type="line"/>
      <point x="287" y="789" type="line"/>
      <point x="97" y="584" type="line"/>
      <point x="249" y="584" type="line"/>
    </contour>
    <contour>
      <point x="226" y="470" type="line"/>
      <point x="242" y="549" type="line"/>
      <point x="48" y="549" type="line"/>
      <point x="55" y="588" type="line"/>
      <point x="286" y="839" type="line"/>
      <point x="343" y="839" type="line"/>
      <point x="292" y="584" type="line"/>
      <point x="349" y="584" type="line"/>
      <point x="342" y="549" type="line"/>
      <point x="285" y="549" type="line"/>
      <point x="269" y="470" type="line"/>
    </contour>
  </outline>
</glyph>
<glyph name="seven.subs" format="2">
  <advance width="351"/>
  <outline>
    <contour>
      <point x="170" y="470" type="line"/>
      <point x="121" y="470" type="line"/>
      <point x="333" y="802" type="line"/>
      <point x="115" y="802" type="line"/>
      <point x="123" y="839" type="line"/>
      <point x="386" y="839" type="line"/>
      <point x="378" y="799" type="line"/>
    </contour>
  </outline>
</glyph>
<glyph name="six.subs" format="2">
  <advance width="351"/>
  <outline>
    <contour>
      <point x="202" y="499" type="qcurve" smooth="yes"/>
      <point x="238" y="499"/>
      <point x="289" y="535"/>
      <point x="298" y="574" type="qcurve"/>
      <point x="301" y="592"/>
      <point x="301" y="599" type="qcurve"/>
      <point x="298" y="663"/>
      <point x="227" y="663" type="qcurve" smooth="yes"/>
      <point x="192" y="663"/>
      <point x="138" y="626"/>
      <point x="130" y="587" type="qcurve" smooth="yes"/>
      <point x="128" y="578"/>
      <point x="127" y="567"/>
      <point x="127" y="562" type="qcurve"/>
      <point x="132" y="499"/>
    </contour>
    <contour>
      <point x="200" y="464" type="qcurve"/>
      <point x="83" y="469"/>
      <point x="83" y="572" type="qcurve" smooth="yes"/>
      <point x="83" y="651"/>
      <point x="147" y="733" type="qcurve"/>
      <point x="207" y="804"/>
      <point x="273" y="839" type="qcurve"/>
      <point x="338" y="839" type="line"/>
      <point x="192" y="761"/>
      <point x="143" y="647" type="qcurve"/>
      <point x="146" y="646" type="line"/>
      <point x="180" y="697"/>
      <point x="243" y="697" type="qcurve" smooth="yes"/>
      <point x="292" y="697"/>
      <point x="347" y="644"/>
      <point x="347" y="600" type="qcurve" smooth="yes"/>
      <point x="347" y="540"/>
      <point x="266" y="464"/>
    </contour>
  </outline>
</glyph>
<glyph name="three.sups" format="2">
  <advance width="341"/>
  <outline>
    <contour>
      <point x="182" y="-394" type="qcurve" smooth="yes"/>
      <point x="84" y="-394"/>
      <point x="56" y="-330" type="qcurve"/>
      <point x="89" y="-307" type="line"/>
      <point x="113" y="-357"/>
      <point x="183" y="-357" type="qcurve" smooth="yes"/>
      <point x="228" y="-357"/>
      <point x="272" y="-321"/>
      <point x="278" y="-288" type="qcurve"/>
      <point x="278" y="-287"/>
      <point x="280" y="-282"/>
      <point x="280" y="-269" type="qcurve" smooth="yes"/>
      <point x="280" y="-215"/>
      <point x="205" y="-215" type="qcurve" smooth="yes"/>
      <point x="158" y="-215" type="line"/>
      <point x="165" y="-178" type="line"/>
      <point x="211" y="-178" type="line" smooth="yes"/>
      <point x="260" y="-178"/>
      <point x="300" y="-143"/>
      <point x="304" y="-118" type="qcurve"/>
      <point x="306" y="-102" type="line"/>
      <point x="306" y="-79"/>
      <point x="273" y="-50"/>
      <point x="240" y="-50" type="qcurve" smooth="yes"/>
      <point x="179" y="-50"/>
      <point x="142" y="-97" type="qcurve"/>
      <point x="115" y="-72" type="line"/>
      <point x="161" y="-13"/>
      <point x="244" y="-13" type="qcurve" smooth="yes"/>
      <point x="296" y="-13"/>
      <point x="352" y="-64"/>
      <point x="352" y="-102" type="qcurve" smooth="yes"/>
      <point x="352" y="-141"/>
      <point x="301" y="-191"/>
      <point x="262" y="-197" type="qcurve"/>
      <point x="262" y="-199" type="line"/>
      <point x="325" y="-209"/>
      <point x="325" y="-274" type="qcurve" smooth="yes"/>
      <point x="325" y="-327"/>
      <point x="248" y="-394"/>
    </contour>
  </outline>
</glyph>
<glyph name="two.subs" format="2">
  <advance width="339"/>
  <outline>
    <contour>
      <point x="49" y="470" type="line"/>
      <point x="57" y="514" type="line"/>
      <point x="202" y="617" type="line"/>
      <point x="243" y="645"/>
      <point x="269" y="670" type="qcurve" smooth="yes"/>
      <point x="303" y="703"/>
      <point x="303" y="747" type="qcurve"/>
      <point x="298" y="807"/>
      <point x="232" y="807" type="qcurve" smooth="yes"/>
      <point x="165" y="807"/>
      <point x="137" y="739" type="qcurve"/>
      <point x="99" y="755" type="line"/>
      <point x="137" y="845"/>
      <point x="237" y="845" type="qcurve" smooth="yes"/>
      <point x="287" y="845"/>
      <point x="351" y="794"/>
      <point x="351" y="748" type="qcurve" smooth="yes"/>
      <point x="351" y="699"/>
      <point x="312" y="659" type="qcurve"/>
      <point x="276" y="624"/>
      <point x="228" y="591" type="qcurve" smooth="yes"/>
      <point x="107" y="507" type="line"/>
      <point x="315" y="507" type="line"/>
      <point x="308" y="470" type="line"/>
    </contour>
  </outline>
</glyph>
<glyph name="two.sups" format="2">
  <advance width="339"/>
  <outline>
    <contour>
      <point x="49" y="-388" type="line"/>
      <point x="57" y="-344" type="line"/>
      <point x="202" y="-241" type="line"/>
      <point x="243" y="-213"/>
      <point x="269" y="-188" type="qcurve" smooth="yes"/>
      <point x="303" y="-155"/>
      <point x="303" y="-111" type="qcurve"/>
      <point x="298" y="-51"/>
      <point x="232" y="-51" type="qcurve" smooth="yes"/>
      <point x="165" y="-51"/>
      <point x="137" y="-119" type="qcurve"/>
      <point x="99" y="-103" type="line"/>
      <point x="137" y="-13"/>
      <point x="237" y="-13" type="qcurve" smooth="yes"/>
      <point x="287" y="-13"/>
      <point x="351" y="-64"/>
      <point x="351" y="-110" type="qcurve" smooth="yes"/>
      <point x="351" y="-159"/>
      <point x="312" y="-199" type="qcurve"/>
      <point x="276" y="-234"/>
      <point x="228" y="-267" type="qcurve" smooth="yes"/>
      <point x="107" y="-351" type="line"/>
      <point x="315" y="-351" type="line"/>
      <point x="308" y="-388" type="line"/>
    </contour>
  </outline>
</glyph>
<glyph name="zero.sups" format="2">
  <advance width="357"/>
  <outline>
    <contour>
      <point x="204" y="-357" type="qcurve" smooth="yes"/>
      <point x="289" y="-357"/>
      <point x="313" y="-240" type="qcurve" smooth="yes"/>
      <point x="326" y="-175" type="line"/>
      <point x="330" y="-160"/>
      <point x="330" y="-135" type="qcurve" smooth="yes"/>
      <point x="330" y="-50"/>
      <point x="255" y="-50" type="qcurve" smooth="yes"/>
      <point x="170" y="-50"/>
      <point x="146" y="-167" type="qcurve" smooth="yes"/>
      <point x="133" y="-232" type="line"/>
      <point x="129" y="-246"/>
      <point x="129" y="-272" type="qcurve" smooth="yes"/>
      <point x="129" y="-357"/>
    </contour>
    <contour>
      <point x="201" y="-394" type="qcurve" smooth="yes"/>
      <point x="144" y="-394"/>
      <point x="84" y="-325"/>
      <point x="84" y="-262" type="qcurve" smooth="yes"/>
      <point x="84" y="-167"/>
      <point x="125" y="-95" type="qcurve" smooth="yes"/>
      <point x="172" y="-13"/>
      <point x="258" y="-13" type="qcurve" smooth="yes"/>
      <point x="315" y="-13"/>
      <point x="375" y="-82"/>
      <point x="375" y="-145" type="qcurve" smooth="yes"/>
      <point x="375" y="-240"/>
      <point x="334" y="-312" type="qcurve" smooth="yes"/>
      <point x="287" y="-394"/>
    </contour>
  </outline>
</glyph>
